<svg xmlns="http://www.w3.org/2000/svg" width="350" height="37" viewBox="0 0 350 37">
  <g id="b" transform="translate(-0.02 0.001)">
    <g id="c" transform="translate(0.02 -0.001)">
      <g id="Grupo_62" data-name="Grupo 62" transform="translate(0 0)">
        <path id="Caminho_1" data-name="Caminho 1" d="M1753.343,3.755c-.277.007-.553.02-.829.02q-5.514,0-11.028,0c-.421,0-.843,0-1.264-.021a.525.525,0,0,0-.545.364,1.489,1.489,0,0,0-.077.343,5.971,5.971,0,0,1-.074.78c-.081.249-.179.494-.247.746a9.645,9.645,0,0,0-.356,1.406,3.439,3.439,0,0,1-.383,1.147,1.552,1.552,0,0,0-.17.467,13.369,13.369,0,0,0-.385,1.879.466.466,0,0,1-.08.22,1.717,1.717,0,0,0-.2.6c-.132.69-.249,1.385-.362,2.079-.043.268-.031.55-.27.751a.383.383,0,0,0-.094.214,6.52,6.52,0,0,0-.268,1.536.9.9,0,0,1-.156.6,2.877,2.877,0,0,0-.433,1.042c-.026.082-.05.155-.146.154a.178.178,0,0,1-.163-.149.814.814,0,0,1-.039-.232,1.745,1.745,0,0,0-.185-.674,7.03,7.03,0,0,1-.349-.947,12.457,12.457,0,0,0-.278-1.252,12.045,12.045,0,0,1-.359-1.4c-.041-.176.023-.37-.1-.532a1.81,1.81,0,0,1-.266-.813,3.843,3.843,0,0,0-.153-.559c-.135-.375-.2-.773-.312-1.158-.135-.454-.146-.949-.291-1.414a7.1,7.1,0,0,1-.191-1.036,2.32,2.32,0,0,0-.227-1.057.382.382,0,0,1-.041-.15c-.145-.9-.514-1.753-.674-2.654a.3.3,0,0,0-.323-.277c-.211,0-.421.011-.632.011h-12.451c-.224,0-.448-.018-.671,0-.284.02-.385.116-.371.4.024.512-.013,1.022-.016,1.531-.006,1.207.037,2.418-.033,3.622a1.429,1.429,0,0,0,.5,1.128,3.871,3.871,0,0,1,.555.962,2.591,2.591,0,0,1,.215,1.226c.006.8,0,1.6,0,2.4q.014,6.5.006,13,0,1.359-.008,2.717a4.218,4.218,0,0,1-.469,1.752.368.368,0,0,1-.163.166c-.323.157-.354.542-.6.757a.229.229,0,0,0-.025.188,3.454,3.454,0,0,1,.008.822q0,2.382.022,4.763c0,.446.049.481.51.475.619-.008,1.239-.021,1.858-.019,2.819.006,5.639-.021,8.457.021.491.007.557-.046.577-.526.02-.459.012-.919.009-1.377,0-.722-.024-1.444-.018-2.166s-.064-1.425,0-2.137a.127.127,0,0,0-.058-.135c-.3-.17-.464-.491-.733-.7a.921.921,0,0,1-.434-.674c.014-.62-.076-1.23-.094-1.846-.033-1.154.1-2.306.007-3.461-.091-1.174.043-2.354-.063-3.534a4.369,4.369,0,0,1,0-1.409.618.618,0,0,0-.038-.231c0-.149,0-.3,0-.448a.169.169,0,0,1,.153-.181c0,.136-.07.286.09.384h0a.608.608,0,0,1,.365.557c.034.456.348.854.286,1.331a.185.185,0,0,0,.041.109c.316.482.176,1.117.535,1.584a.127.127,0,0,1,.009.077,3.77,3.77,0,0,0,.113,1.011c.108.511.173,1.032.308,1.536a12.525,12.525,0,0,1,.54,2.28.4.4,0,0,0,.1.209,2.892,2.892,0,0,1,.468,1.473,2.4,2.4,0,0,0,.159.721,4.171,4.171,0,0,1,.434,1.377,3.77,3.77,0,0,0,.395,1.344,4.864,4.864,0,0,1,.33,1,5.351,5.351,0,0,0,.533,1.982.324.324,0,0,1,.051.187,4.933,4.933,0,0,0,.313,1.33c.063.3.129.328.442.33s.631-.013.947-.011c.632,0,1.266,0,1.9.027a.36.36,0,0,0,.383-.249c.208-.42.161-.932.486-1.308.036-.041.03-.127.03-.192a3.67,3.67,0,0,1,.093-.661,8.4,8.4,0,0,0,.147-.97,12.628,12.628,0,0,0,.156-1.288.228.228,0,0,1,.049-.147,1.835,1.835,0,0,0,.313-.906,14.24,14.24,0,0,1,.409-1.7,1.308,1.308,0,0,0,.157-.441,5.492,5.492,0,0,1,.3-1.2,4.443,4.443,0,0,1,.5-1.467c.033-.048.016-.129.032-.192.139-.518.117-1.061.281-1.58a3.057,3.057,0,0,1,.257-.8c.168-.266.094-.627.208-.909a9.489,9.489,0,0,0,.436-1.7,2.131,2.131,0,0,1,.279-.85.47.47,0,0,0,.075-.3,1.973,1.973,0,0,1,.067-.5c.14-.6.24-1.217.4-1.815.024-.084-.009-.209.124-.2s.115.121.118.212c0,.039,0,.079,0,.118,0,.681.018,1.362-.008,2.042-.026.7-.054,1.389-.052,2.084,0,1.312-.015,2.624-.026,3.936a12.984,12.984,0,0,1-.044,2.081c-.071.422-.127.847-.205,1.267a1.592,1.592,0,0,1-.484.9.846.846,0,0,0-.347.633,7.3,7.3,0,0,1,.018.777c-.008.772.03,1.545.029,2.319,0,.852-.034,1.7-.043,2.557,0,.381.087.452.473.445.488-.009.975-.018,1.462-.018,3.6,0,7.193-.019,10.791.028.415.006.44-.021.437-.449,0-.577-.02-1.155-.022-1.732,0-1.3-.031-2.6.013-3.9a1.107,1.107,0,0,0-.451-.96,1.12,1.12,0,0,1-.5-.88,7.238,7.238,0,0,1-.088-1.253c.021-.932.023-1.863.022-2.8-.006-4.3,0-8.611,0-12.916,0-.813-.009-1.627-.017-2.44a2.088,2.088,0,0,1,.33-1.386,7.879,7.879,0,0,0,.55-.8.883.883,0,0,0,.145-.511c-.007-1.732-.058-3.464.024-5.2a3.117,3.117,0,0,0,0-.394c-.024-.288-.08-.333-.369-.326Z" transform="translate(-1514.167 -3.308)" fill="#1462a3"/>
        <path id="Caminho_2" data-name="Caminho 2" d="M2528.91,33.284a7.989,7.989,0,0,1-.654-.953,2.882,2.882,0,0,1-.178-1.113q-.092-3.46-.034-6.923.012-.809.033-1.619a20.693,20.693,0,0,0-.281-5.221,6.451,6.451,0,0,0-2.852-4.228,7.894,7.894,0,0,0-3.224-.847,14.738,14.738,0,0,0-3.749.087,8.729,8.729,0,0,0-1.8.473c-.224.089-.869.586-1.077.589a.482.482,0,0,0-.388.236.275.275,0,0,1-.31.121c-.147-.04-.151-.164-.152-.285V3.637c0-.192-.079-.285-.289-.275-.367.017-.736.015-1.105.015q-4.349,0-8.7,0a3.448,3.448,0,0,1-1.021-.061c-.158-.047-.251.04-.269.2a2.312,2.312,0,0,0,0,.236V8.83c0,.066,0,.131,0,.2a.235.235,0,0,0,.2.252,1,1,0,0,1,.7.635.882.882,0,0,0,.124.242,1.063,1.063,0,0,1,.273.834,1.717,1.717,0,0,0,.038.586,2.257,2.257,0,0,1,.086.778c0,6.144.008,12.287-.012,18.431a2.494,2.494,0,0,1-.46,1.835c-.016.018-.014.057-.032.071-.18.142-.231.406-.5.473-.38.1-.418.162-.419.547q0,2.6,0,5.2c0,.381.007.38.409.377,1.238-.009,2.476-.02,3.714-.024q2.352-.005,4.7,0c1,0,2,0,3,.017.666.014.734-.021.73-.688-.007-1.272-.055-2.544-.029-3.818.007-.341.021-.682,0-1.022a.78.78,0,0,0-.361-.64,1.672,1.672,0,0,1-.784-1.374V22.367c0-.7,0-1.39-.029-2.085-.023-.494.048-.514.522-.617a2.616,2.616,0,0,1,1.38,0,1.653,1.653,0,0,1,.934.534c.231.335.454.682.665,1.031a1.741,1.741,0,0,1,.2.948c-.019.42-.012.839-.013,1.258q-.014,3.84,0,7.679a14.144,14.144,0,0,0,.1,2.587.53.53,0,0,1,0,.157c-.062.63.069,1.254.045,1.885a3.12,3.12,0,0,0,.072.861,6.216,6.216,0,0,1,.16,1.522,2.282,2.282,0,0,0,.222.908.39.39,0,0,0,.43.257q1.243-.025,2.487-.027,2.074-.005,4.15,0c.642,0,3.49.424,3.49-.4,0-1.083-.036-2.171,0-3.253.022-.73.262-1.662-.155-2.323Z" transform="translate(-2206.106 -2.91)" fill="#1462a3"/>
        <path id="Caminho_3" data-name="Caminho 3" d="M2292.824,100.478a1.978,1.978,0,0,1-.714-1.014,3.449,3.449,0,0,1-.128-1.011q.013-5.9,0-11.811a1.905,1.905,0,0,0-.093-.932.229.229,0,0,1,0-.153.919.919,0,0,0-.04-.541,4.052,4.052,0,0,1-.11-.58c-.022-.2-.044-.395-.258-.493a.189.189,0,0,1-.1-.2c.006-.353-.313-.6-.3-.963,0-.04-.048-.1-.09-.123a.857.857,0,0,1-.292-.412,2.3,2.3,0,0,0-.386-.536c-.24-.272-.632-.4-.753-.784a.122.122,0,0,0-.1-.058c-.178,0-.246-.123-.312-.257a.442.442,0,0,0-.262-.229,7.341,7.341,0,0,1-1.006-.426.738.738,0,0,0-.194-.039,17.09,17.09,0,0,0-2.308-.261,18.842,18.842,0,0,0-3.583.162,1.516,1.516,0,0,0-.876.312.752.752,0,0,1-.4.142,2.519,2.519,0,0,0-.929.378.942.942,0,0,1-.492.208c-.234,0-.242.3-.445.356-.026.006-.051.013-.077.017a.819.819,0,0,0-.352.17,2.964,2.964,0,0,1-.374.218.136.136,0,0,1-.211-.1,1.384,1.384,0,0,1-.038-.313c0-.237.012-.473.012-.71,0-.345-.1-.446-.439-.438-.488.013-.974.037-1.461.039q-3.379.016-6.758.021a3.131,3.131,0,0,1-.825-.023,4.455,4.455,0,0,0-1.057-.027.2.2,0,0,0-.228.215c0,.078,0,.158,0,.237v5.292c0,.1.044.2.143.211.232.037.318.21.41.387a.453.453,0,0,0,.214.227.661.661,0,0,1,.386.518,6.664,6.664,0,0,1,.205,1.39c.022,1.975.013,3.95.006,5.924-.006,1.394.064,2.79-.07,4.181a2.789,2.789,0,0,1-.166.919,2.206,2.206,0,0,1-.818.986.644.644,0,0,0-.318.626c.017.987.007,1.975.007,2.963,0,.738,0,1.474,0,2.212,0,.3.022.311.314.318.171,0,.343.012.514.012h10.948c.184,0,.369-.008.553,0,.168.006.24-.075.245-.234,0-.065.007-.132.007-.2,0-.842-.011-1.685-.012-2.527,0-.816-.027-1.634.016-2.448a.756.756,0,0,0-.348-.764,4.8,4.8,0,0,1-.809-.908.392.392,0,0,1-.044-.227c-.033-.986-.1-1.969-.1-2.956.014-2.633.007-5.266.019-7.9,0-.331-.047-.656-.049-.984,0-.3.14-.506.367-.521.579-.038,1.157-.291,1.739-.007.022.011.053,0,.078,0a1.231,1.231,0,0,1,.838.517,3.615,3.615,0,0,0,.361.607,1.247,1.247,0,0,1,.322.863c0,.618,0,1.237,0,1.855.038,3.762-.09,7.526.094,11.287a6.349,6.349,0,0,1,.006.671c-.035.6.156,1.19.158,1.79a1.3,1.3,0,0,1,.177.777c.023.209,0,.422.032.629.1.668.12.676.792.669.921-.01,1.844-.026,2.766-.025,2.292,0,4.584.017,6.877.021.422,0,.444-.024.448-.448.009-.671.008-1.343.009-2.014,0-1.014,0-2.027,0-3.041a.781.781,0,0,0-.347-.7Z" transform="translate(-1998.061 -70.306)" fill="#1462a3"/>
        <path id="Caminho_4" data-name="Caminho 4" d="M618.854,86.515c-.009-1.7,0-3.4,0-5.094a7.307,7.307,0,0,1,.04-1.1c.061-.4-.04-.529-.451-.535a12.479,12.479,0,0,0-1.382.008,2.945,2.945,0,0,0-1.828.495c-.485.127-.569.69-.979.9-.026.013-.024.075-.045.107a2.279,2.279,0,0,1-.681.7c-.083.053-.186.052-.162-.049.053-.225-.045-.452.018-.662a3.113,3.113,0,0,0,0-.86c.007-.208-.134-.286-.352-.251-.089.014-.182.081-.266.023a.67.67,0,0,0-.711-.007.922.922,0,0,1-.39.039c-1.475,0-2.951.008-4.426,0-1.4-.012-2.792.063-4.187-.056-.272-.023-.372.078-.358.384.027.6,0,1.21,0,1.813,0,1.053.018,2.106-.012,3.16a1.43,1.43,0,0,0,.42,1.1c.344.358.409.871.7,1.261a8.017,8.017,0,0,0,.122.9c.012.434.011.867.01,1.3-.005,1.541.026,3.08.007,4.621a25.076,25.076,0,0,1-.078,3.43.713.713,0,0,0,.007.275,1.555,1.555,0,0,1-.118,1.037c-.164.364-.5.629-.662,1a.541.541,0,0,0-.357.746.438.438,0,0,1,0,.117q-.014,2.565-.028,5.132c0,.311.056.369.368.361,1.963-.056,3.926,0,5.888-.025.671,0,1.344,0,2.015,0q1.916.011,3.833.027c.351,0,.413-.055.426-.4,0-.106,0-.211,0-.315q-.021-2.053-.045-4.106a4.641,4.641,0,0,0-.038-.9.67.67,0,0,0-.27-.454,1.716,1.716,0,0,1-.645-1.041,2.937,2.937,0,0,1-.184-1.352c.016-.064-.04-.148-.071-.221a1.136,1.136,0,0,1-.084-.5c.007-.21,0-.421.007-.632.046-1.339-.088-2.682.072-4.017.063-.53.2-1.052.312-1.574a6.774,6.774,0,0,1,.659-1.461c.027-.057.079-.146.119-.146.308,0,.441-.265.651-.409a5.717,5.717,0,0,1,1.28-.474,4.185,4.185,0,0,1,1.448-.107c.407-.008.546-.153.492-.552a12.4,12.4,0,0,1-.07-1.612Z" transform="translate(-531.215 -70.418)" fill="#1462a3"/>
        <path id="Caminho_5" data-name="Caminho 5" d="M767.614,104.181a2.621,2.621,0,0,0-.05-.509c-.033-.166-.083-.3-.275-.338a.5.5,0,0,1-.349-.345c-.063-.158-.1-.356-.246-.44-.272-.154-.268-.383-.268-.64q.005-4.6,0-9.2V83.422a.988.988,0,0,0-.027-.391.276.276,0,0,0-.321-.195c-.419.014-.833.075-1.25.081-.725.009-1.449,0-2.174,0-1.106,0-2.212.014-3.318-.007-.856-.015-1.71-.037-2.567.017a4.583,4.583,0,0,1-1.18-.045c-.439-.087-.544.006-.544.455,0,1.659.006,3.319-.007,4.977a.479.479,0,0,0,.325.517c.138.055.258.116.279.294.014.125.129.193.221.268a1.014,1.014,0,0,1,.354.514,6.025,6.025,0,0,1,.258,1.462c.007,2.924,0,5.846,0,8.77a6.46,6.46,0,0,1-.134,1.879c-.08.266-.056.58-.365.734-.041.02-.068.081-.089.127a1.045,1.045,0,0,1-.493.486.632.632,0,0,0-.353.608c.011,1.646.006,3.291,0,4.938,0,.676-.023.582.605.579,3.649-.024,7.3-.03,10.947.012.237,0,.474.007.71,0s.292-.057.311-.306c0-.052,0-.106,0-.158Q767.615,106.609,767.614,104.181Z" transform="translate(-665.515 -73.123)" fill="#1462a3"/>
        <path id="Caminho_6" data-name="Caminho 6" d="M268.413,104.817a2.424,2.424,0,0,1,0-.509.831.831,0,0,0-.406-.916.71.71,0,0,1-.4-.455.489.489,0,0,0-.091-.171,2.09,2.09,0,0,1-.374-1.293c.006-.355.014-.708.013-1.063q-.007-4.067,0-8.134h0q0-3.574,0-7.147c0-.512.01-1.026.03-1.537.017-.44-.087-.563-.536-.554-.54.011-1.079.051-1.619.052q-2.864.009-5.729,0c-.486,0-.973-.031-1.46-.021a6.412,6.412,0,0,1-1.574-.031c-.182-.041-.276.047-.289.225-.007.1,0,.21,0,.315q-.005,2.487-.013,4.976c0,.227.027.422.292.487a.331.331,0,0,1,.213.217,1.131,1.131,0,0,0,.286.374.457.457,0,0,1,.164.216,5.008,5.008,0,0,1,.244,1.308q-.009,5.311-.006,10.622a1.913,1.913,0,0,1-.1.659,1.624,1.624,0,0,1-.732,1.035.555.555,0,0,0-.351.588c.01.645,0,1.29,0,1.934q0,1.639,0,3.277c0,.375.028.4.409.389s.738-.018,1.107-.018c3.437,0,6.874,0,10.31.028.632.006.665-.157.659-.67-.017-1.395-.1-2.788-.046-4.183Z" transform="translate(-225.604 -73.29)" fill="#1462a3"/>
        <path id="Caminho_7" data-name="Caminho 7" d="M759.872,4.692a.589.589,0,0,0,.051.346c.185.279.155.676.489.876.036.021.041.094.059.142a1.321,1.321,0,0,0,.521.674,7.448,7.448,0,0,0,1.8,1.179,7.81,7.81,0,0,0,2.4.348h.046a6.79,6.79,0,0,0,3.094-.594,4.217,4.217,0,0,0,2.251-2.937,3.709,3.709,0,0,0-1.206-3.455A5.6,5.6,0,0,0,766.758.208a7.341,7.341,0,0,0-3.587.031,5.225,5.225,0,0,1-.8.311,6.049,6.049,0,0,0-.684.178.536.536,0,0,0-.385.308.641.641,0,0,1-.375.382.6.6,0,0,0-.3.3,1.067,1.067,0,0,1-.336.427.374.374,0,0,0-.135.19,2.754,2.754,0,0,0-.288,1.33,9.6,9.6,0,0,1,.008,1.026Z" transform="translate(-669.757 0.001)" fill="#1462a3"/>
        <path id="Caminho_8" data-name="Caminho 8" d="M260.542,7.363a5.588,5.588,0,0,0,2.444,1.162,8.272,8.272,0,0,0,1.709.3,6.414,6.414,0,0,0,2.4-.279,4.777,4.777,0,0,0,3-2.7,3.617,3.617,0,0,0-.767-3.856A5.015,5.015,0,0,0,267,.882,9.518,9.518,0,0,0,264.04.62c-1.132.09-3.071.426-3.715,1.493-.053.089-.081.195-.135.283a4.429,4.429,0,0,0-.586,1.659,2.769,2.769,0,0,0-.043.936,5.517,5.517,0,0,0,.981,2.37Z" transform="translate(-228.756 -0.523)" fill="#1462a3"/>
        <path id="Caminho_9" data-name="Caminho 9" d="M444.006,8.214c.157,0,.316-.049.471-.039.933.062,1.868-.025,2.8.033a5.038,5.038,0,0,0,.906-.021c.55-.064.905-.727,1.152-1.15.315-.541.621-1.089.92-1.639a13.409,13.409,0,0,1,2.4-3.512c.024-.023.024-.069.042-.127a11.21,11.21,0,0,0-1.483-.053c-.579.012-1.159.027-1.738.038-1.134.02-2.269.02-3.4-.062a.2.2,0,0,0-.225.119,15.78,15.78,0,0,0-.779,1.931q-.365,1.13-.779,2.24c-.108.291-1.095,2.239-.291,2.243Z" transform="translate(-391.07 -1.481)" fill="#1462a3"/>
        <path id="Caminho_10" data-name="Caminho 10" d="M2778.048,14.051a.75.75,0,0,0,.437.084,32.074,32.074,0,0,1,3.256-.036c.1.009.16-.055.2-.149a.687.687,0,0,1,.479-.371,3.412,3.412,0,0,1,1.445-.03c.531.077,1.039.254,1.568.356.64.123,1.284.259,1.922.4a4.451,4.451,0,0,0,3.722-.644,8.113,8.113,0,0,0,.921-.847c.147-.149.294-.3.427-.463a5.139,5.139,0,0,0,1.042-2.29.49.49,0,0,1,.071-.14c.039-.243.262-.856-.06-1.006a.587.587,0,0,0-.253-.04h-.054a17.452,17.452,0,0,0-2.684.087c-.689.13-1.131.766-1.823.878a3.5,3.5,0,0,1-1.537-.244,16.631,16.631,0,0,0-2.173-.5,5.9,5.9,0,0,0-4.583.75c-1.162.91-1.475,2.351-2.316,3.489-.128.173-.218.569-.008.713Z" transform="translate(-2448.544 -7.817)" fill="#1462a3"/>
        <path id="Caminho_11" data-name="Caminho 11" d="M28.079,11.844a9.448,9.448,0,0,0-.387-1.874c-.026-.057-.007-.131-.026-.193-.184-.591-.113-1.25-.649-1.749-.339-.315-.51-.793-.849-1.153-.247-.261-.425-.589-.76-.759-.253-.129-.391-.375-.613-.542-.387-.291-.878-.378-1.236-.743-.34-.345-.925-.315-1.3-.654a.167.167,0,0,0-.115-.02,9.471,9.471,0,0,1-1.364-.17c-.668-.048-1.333-.181-2-.186-3.03-.021-6.06-.009-9.09-.009v0q-3.122,0-6.245,0-1.6,0-3.2-.021c-.13,0-.2.03-.215.161-.007.091-.008.183-.008.275q0,2.618.008,5.237v.472a.236.236,0,0,0,.154.247,1.7,1.7,0,0,1,.977,1.009c.081.207.274.357.294.592.042.5.117.991.119,1.486q.014,6.851,0,13.7a37.672,37.672,0,0,1-.108,4.359A3.647,3.647,0,0,1,.938,32.6a.36.36,0,0,1-.146.129,3.291,3.291,0,0,0-.575.472.549.549,0,0,0-.19.482c.012.472.006.945,0,1.418Q.027,37.249.02,39.4c0,.3.018.305.312.3,1.133-.009,2.265-.02,3.4-.021q5.711,0,11.422,0c.738,0,1.475.011,2.212,0,.479,0,.963-.078,1.443-.122a17.9,17.9,0,0,1,1.8-.2,1.262,1.262,0,0,0,.311-.043,6.523,6.523,0,0,1,1.117-.2,2.194,2.194,0,0,0,1.3-.506c.07-.059.132-.144.213-.173.466-.157.791-.555,1.252-.716a.268.268,0,0,0,.13-.085c.339-.5,1.026-.667,1.224-1.3.009-.031.057-.051.089-.071a.818.818,0,0,0,.448-.566c.015-.1.115-.141.165-.215a3.387,3.387,0,0,0,.612-1.122c.093-.407.179-.816.285-1.22a10.869,10.869,0,0,0,.333-1.275,13.744,13.744,0,0,0,.173-1.869q0-8.032,0-16.065a8.807,8.807,0,0,0-.172-2.1ZM16.9,19.069q0,4.546,0,9.092c0,.538-.014,1.075-.032,1.613a2.067,2.067,0,0,1-.633,1.477,2.115,2.115,0,0,1-1.346.722c-.35.014-.7.054-1.013.063-.255,0-.466.006-.676,0-.273-.009-.364-.095-.348-.357.069-1.084.023-2.171.055-3.256.02-.679-.019-1.363-.019-2.044,0-4.041-.012-8.081,0-12.123,0-.7-.019-1.389-.033-2.084a.954.954,0,0,1,.047-.387.351.351,0,0,1,.313-.24,6.525,6.525,0,0,1,2.1.183.373.373,0,0,1,.2.112,1.1,1.1,0,0,0,.217.168,2.1,2.1,0,0,1,1.078,1.369,1.83,1.83,0,0,1,.053.466c.049,1.743.034,3.487.036,5.23Z" transform="translate(-0.02 -3.323)" fill="#1462a3"/>
        <path id="Caminho_12" data-name="Caminho 12" d="M1202.172,34.046a.621.621,0,0,0-.333-.61c-.108-.063-.255-.122-.264-.272a1.1,1.1,0,0,0-.2-.458,4.415,4.415,0,0,0-.385-.842c-.021-.025-.009-.077-.01-.116-.027-1.154-.074-2.308-.079-3.462-.008-1.771.019-3.544.019-5.315q0-5.216-.018-10.431c0-.472-.061-.946-.036-1.415.048-.851.012-1.7.033-2.555.03-1.18-.02-2.362.021-3.544.011-.283-.018-.57-.023-.856-.007-.326-.086-.388-.408-.39-.3,0-.606.017-.909.017l-9.366-.009c-.264,0-.356.087-.349.354a4.416,4.416,0,0,1,.042.508c-.1,1.036-.008,2.072-.041,3.107a9.2,9.2,0,0,1-.016,1.525.385.385,0,0,0,.144.385,3.025,3.025,0,0,0,.39.331.88.88,0,0,1,.4.641c.055.3.115.591.155.889a15.748,15.748,0,0,1,.075,2.743c-.008.214-.081.247-.281.16a5.8,5.8,0,0,1-.905-.6,2.644,2.644,0,0,0-.927-.452.778.778,0,0,1-.317-.149,1.094,1.094,0,0,0-.384-.173,7.776,7.776,0,0,0-1.638-.236,19.694,19.694,0,0,0-4.019.125,2.846,2.846,0,0,0-1.045.339.482.482,0,0,1-.256.09.705.705,0,0,0-.573.3.7.7,0,0,1-.407.287.371.371,0,0,0-.216.162.66.66,0,0,1-.268.226c-.46.168-.644.628-.98.929-.384.345-.4.965-.865,1.272a.11.11,0,0,0-.038.067c-.039.319-.283.549-.332.888-.065.454-.272.881-.338,1.357a13.151,13.151,0,0,0-.2,1.782q0,5.1,0,10.2c0,.617.042,1.23.09,1.845a11.14,11.14,0,0,1,.149,1.519.661.661,0,0,0,.19.5.636.636,0,0,1,.16.467,3.772,3.772,0,0,0,.445,1.566c.113.233.311.429.4.657a3.434,3.434,0,0,0,1.244,1.518,7.748,7.748,0,0,0,1.664.776c.2.088.429.122.639.2a2.171,2.171,0,0,0,.576.109,6.025,6.025,0,0,1,1.715.226.748.748,0,0,0,.579-.038,1.5,1.5,0,0,1,.654-.123,7.142,7.142,0,0,0,2.369-.32,1.348,1.348,0,0,1,.311-.046.681.681,0,0,0,.333-.114,3.578,3.578,0,0,1,1.323-.452c.09-.021.205-.012.256-.084.178-.254.523-.284.7-.538.1-.141.263-.1.4-.078s.149.128.134.242c0,.218.019.436,0,.652a.53.53,0,0,0,.09.361h0c.54,0,1.079-.007,1.618-.006l8.694.024c.388,0,.409-.009.417-.387.008-.407,0-.814,0-1.22,0-1.352-.01-2.7,0-4.054ZM1191.013,31.9c0,.45-.2.6-.637.744-.407.136-.83.058-1.234.2-.322.115-1.043-.3-1.218-.621-.025-.045-.045-.11-.084-.128-.448-.2-.408-.647-.5-1.006a11,11,0,0,1-.156-2.656q-.025-2.519-.007-5.037a7.033,7.033,0,0,0-.042-1.292.8.8,0,0,1,.088-.458c.068-.156.14-.31.206-.466a1.814,1.814,0,0,1,1.069-1.111c.095-.033.161-.136.254-.184a.958.958,0,0,1,.841.012,3.321,3.321,0,0,0,.758.206.747.747,0,0,1,.677.777V26.43h-.012q0,2.735,0,5.47Z" transform="translate(-1037.462 -3.331)" fill="#1462a3"/>
        <path id="Caminho_13" data-name="Caminho 13" d="M1427.188,104.15c.013-1.011,0-2.021,0-3.032a.511.511,0,0,0-.255-.533.55.55,0,0,1-.247-.345,1.229,1.229,0,0,0-.277-.515.761.761,0,0,1-.2-.536c-.055-.747-.092-1.494-.095-2.246-.008-1.671,0-3.343-.013-5.015-.011-1.065.014-2.133.017-3.2a12.687,12.687,0,0,0-.028-1.458,7.159,7.159,0,0,0-.457-2.291.354.354,0,0,1-.024-.155.512.512,0,0,0-.165-.387c-.348-.345-.512-.836-.914-1.141a.241.241,0,0,1-.095-.165c.014-.269-.187-.356-.369-.459a.739.739,0,0,1-.356-.293c-.242-.472-.723-.7-1.106-1.026-.122-.1-.307-.141-.429-.269a.26.26,0,0,0-.209-.1.484.484,0,0,1-.438-.217.316.316,0,0,0-.163-.1,3.524,3.524,0,0,0-1.177-.278.439.439,0,0,1-.261-.075,3.1,3.1,0,0,0-1.48-.359c-1.023-.072-2.047-.157-3.077-.167-1.411-.013-2.817.072-4.224.141-.352.018-.7.125-1.053.129a.87.87,0,0,0-.26.09,4.046,4.046,0,0,1-1.154.237,2.562,2.562,0,0,0-.8.179.581.581,0,0,1-.261.077.55.55,0,0,0-.574.255.2.2,0,0,1-.174.082.809.809,0,0,0-.5.205,1,1,0,0,1-.28.142,15.942,15.942,0,0,0-1.612.712c-.374.162-.617.523-1.022.621-.377.092-.448.39-.485.712a1.448,1.448,0,0,0,0,.158c-.009.909.023,1.816,0,2.724-.021.933-.006,1.869,0,2.8,0,.269.055.329.313.345.078,0,.157,0,.237,0l8.144,0c.709,0,.7,0,.7-.721a3.927,3.927,0,0,1,.342-2.071,1.49,1.49,0,0,1,.7-.681,3.507,3.507,0,0,1,1.048-.276c.172-.023.307-.028.414.132a.308.308,0,0,0,.158.115c.513.154.6.656.733,1.038a9.161,9.161,0,0,1,.287,1.748c.039.3-.2.7-.448.7-.288,0-.488.211-.738.236a.94.94,0,0,0-.733.3.212.212,0,0,1-.149.042.719.719,0,0,0-.576.2.278.278,0,0,1-.223.065,1.641,1.641,0,0,0-.717.189,1.51,1.51,0,0,1-.6.168,1.824,1.824,0,0,0-.987.356,1.38,1.38,0,0,1-.727.238.372.372,0,0,0-.292.091,2.464,2.464,0,0,1-1.222.478c-.3.083-.592.174-.887.273a2.61,2.61,0,0,0-1.048.585.392.392,0,0,1-.141.07,8.04,8.04,0,0,1-1.028.364,2,2,0,0,0-.693.345c-.313.211-.523.561-.912.67-.068.019-.09.093-.113.154a.591.591,0,0,1-.2.236,2.463,2.463,0,0,0-.778,1.376,1.273,1.273,0,0,1-.175.477,3.238,3.238,0,0,0-.421,1,16.6,16.6,0,0,0-.315,2.141,1.463,1.463,0,0,0-.014.472,16.374,16.374,0,0,0,.318,2.021c.056.177-.007.374.1.538.2.306.174.715.461.98a.165.165,0,0,1,.047.106,4.379,4.379,0,0,0,.276.9.878.878,0,0,0,.256.436c.276.262.544.533.815.8h0c.019.082.074.1.148.088a.144.144,0,0,0,.15.09h0c.059.225.261.282.44.355.377.152.755.3,1.14.434a8.089,8.089,0,0,0,1.316.473,9.247,9.247,0,0,0,1.311.267,5.319,5.319,0,0,0,2.3-.179,2.058,2.058,0,0,1,.657-.121.969.969,0,0,0,.521-.161c.2-.148.477-.059.682-.161a5.433,5.433,0,0,1,1.784-.557.378.378,0,0,0,.306-.223,1.064,1.064,0,0,1,.52-.465,3.453,3.453,0,0,0,.643-.446c.058-.049.095-.139.188-.106s.082.126.083.2q0,.592,0,1.185c0,.429.023.454.439.441.3-.011.606-.025.908-.024,3.044.008,6.088-.027,9.132.02.286,0,.332-.025.356-.293a6.126,6.126,0,0,0,.025-.789c-.022-.527-.036-1.051-.028-1.579Zm-11.111-8.264c-.076.626-.028,1.255-.045,1.882-.01.345.023.694.021,1.041,0,.081.016.147-.048.212a3.76,3.76,0,0,1-1.964,1.065,1.133,1.133,0,0,0-.441.154.676.676,0,0,1-.43.083,4.135,4.135,0,0,1-.666-.378c-.109-.059-.182-.187-.3-.243a.179.179,0,0,1-.123-.142c-.006-.274-.2-.487-.241-.74a1.536,1.536,0,0,1,.338-1.3,11.04,11.04,0,0,1,.959-.854,1.353,1.353,0,0,1,.805-.372.519.519,0,0,0,.354-.145c.055-.056.118-.121.2-.113a.556.556,0,0,0,.473-.232,2.063,2.063,0,0,1,.887-.227.248.248,0,0,1,.224.311Z" transform="translate(-1235.662 -70.438)" fill="#1462a3"/>
        <path id="Caminho_14" data-name="Caminho 14" d="M2761.99,101.216a19.314,19.314,0,0,0-.527-1.9c-.927-2.813-.471-5.864-.358-8.824s-.257-6.22-2.38-8.287c-1.929-1.88-4.826-2.3-7.52-2.4a28.339,28.339,0,0,0-7.245.544c-1.728.388-5.314,1.181-5.858,3.175-.146.536-.072,5.769-.054,5.77q4.618.178,9.238.075a5.778,5.778,0,0,1,.305-2.434,1.758,1.758,0,0,1,3.448.311,5.844,5.844,0,0,1-.111,2.338c-3.375.593-6.851,1.224-9.729,3.083a10.231,10.231,0,0,0-3.71,4.15,9.1,9.1,0,0,0-.036,6.083,6.663,6.663,0,0,0,4.758,4.244,9.251,9.251,0,0,0,4.309-.008c.8-.183,2.74-.534,3.358-1.105.394-.364.917-.549,1.285-.952.118-.13.243-.066.256.121.027.406.04.812.049,1.219.007.377.011.389.406.385.895-.007,1.79-.025,2.688-.025,2.042,0,4.083.01,6.126.014.447,0,.893.007,1.341,0,.374-.006.39-.03.4-.415V106.3a22.476,22.476,0,0,0-.437-5.08Zm-10.873-3.154c0,.068,0,.136,0,.206a1.574,1.574,0,0,1-.307,1.07,1.791,1.791,0,0,1-.806.427l-1.229.4a1.66,1.66,0,0,1-.542.113,1.349,1.349,0,0,1-1.09-.988,2.221,2.221,0,0,1-.108-1.336,2.592,2.592,0,0,1,1.479-1.535c.614-.3,2-1.158,2.534-.552.392.447.059,1.649.066,2.191Z" transform="translate(-2412.427 -70.426)" fill="#1462a3"/>
        <path id="Caminho_15" data-name="Caminho 15" d="M2063.343,101.028a.373.373,0,0,0-.185-.33,1.06,1.06,0,0,1-.5-.629c-.04-.084-.056-.178-.157-.212-.188-.063-.217-.208-.21-.378a1.165,1.165,0,0,0-.063-.348,4.288,4.288,0,0,1-.175-1.124c0-3.673,0-7.348.009-11.021a3.829,3.829,0,0,0-.237-1.428,1.32,1.32,0,0,1-.14-.569.309.309,0,0,0-.105-.248.5.5,0,0,1-.148-.312.43.43,0,0,0-.324-.4c-.092-.025-.247-.068-.253-.165-.025-.318-.373-.472-.373-.8a.312.312,0,0,0-.25-.275.8.8,0,0,1-.451-.409,1.927,1.927,0,0,0-.717-.769c-.554-.273-1.082-.593-1.636-.859a2.523,2.523,0,0,0-1-.339,1.414,1.414,0,0,1-.852-.262.5.5,0,0,0-.26-.088c-1.036-.1-2.069-.212-3.11-.243a46.314,46.314,0,0,0-6.347.272.711.711,0,0,0-.262.077,2.486,2.486,0,0,1-.989.238,1.987,1.987,0,0,0-1.32.508.216.216,0,0,1-.175.078,1.826,1.826,0,0,0-1.036.318,7.963,7.963,0,0,0-.922.415.913.913,0,0,1-.425.186.484.484,0,0,0-.253.094q-.555.395-1.121.773c-.067.045-.166.076-.156.157.036.308-.127.588-.106.9.064.986.031,1.975.044,2.962.01.722-.058,1.443-.026,2.168.016.362.028.436.39.458.078,0,.157,0,.237,0q3.932,0,7.865,0a2.193,2.193,0,0,0,.433-.025c.231-.045.332-.158.294-.389a7.753,7.753,0,0,1,.142-1.957.378.378,0,0,1,.125-.282,1.311,1.311,0,0,0,.326-.438c.115-.19.225-.387.51-.367a.5.5,0,0,0,.287-.117.963.963,0,0,1,.9-.153,4.255,4.255,0,0,1,.874.413c.04.03.091.079.095.122a6.938,6.938,0,0,0,.254.822,7.283,7.283,0,0,1,.132,1.725,3.035,3.035,0,0,1-.122.5.2.2,0,0,1-.2.153c-.394.026-.723.318-1.135.273a.193.193,0,0,0-.109.042,13.729,13.729,0,0,1-1.625.557c-.458.227-.97.293-1.441.493-.248.106-.494.225-.752.312-.365.121-.79.079-1.09.393-.031.032-.1.019-.15.039a13.314,13.314,0,0,0-1.621.523,2.019,2.019,0,0,1-.864.4c-.051,0-.095.085-.145.127a.6.6,0,0,1-.354.16.656.656,0,0,0-.332.11,1.84,1.84,0,0,1-.62.237.669.669,0,0,0-.272.139c-.308.227-.637.425-.944.657a2.482,2.482,0,0,0-.658.753c-.285.484-.577.963-.844,1.458a1.7,1.7,0,0,0-.354,1.137.415.415,0,0,1-.109.365,1.045,1.045,0,0,0-.234.737c0,.868,0,1.738-.006,2.606a1.783,1.783,0,0,0,.244.943.687.687,0,0,1,.107.409,1.78,1.78,0,0,0,.334,1.072c.25.383.383.82.644,1.2.278.4.407.917.906,1.155a.511.511,0,0,1,.251.3.321.321,0,0,0,.257.218,4.374,4.374,0,0,1,1.3.519.369.369,0,0,0,.181.069,1.1,1.1,0,0,1,.65.247,2,2,0,0,1,1.041.126,6.771,6.771,0,0,0,2.22.192,1.222,1.222,0,0,0,.3-.081,6.469,6.469,0,0,1,1.581-.23c.271-.085.505-.283.817-.255.065.006.141-.064.2-.113a.686.686,0,0,1,.316-.154,8.953,8.953,0,0,1,1.219-.3.534.534,0,0,0,.352-.162c.262-.28.613-.448.874-.725a1.368,1.368,0,0,1,.434-.266c.178-.085.228-.046.229.164,0,.368,0,.735,0,1.1,0,.444.036.476.466.472.961-.009,1.923-.025,2.885-.026,1.779,0,3.556.008,5.335.013.606,0,1.212.01,1.818,0,.378,0,.388-.026.4-.415,0-.106,0-.211,0-.316V101.35a2.888,2.888,0,0,0-.011-.315Zm-11.553-1.811a.063.063,0,0,0-.031.025c-.207.572-.777.54-1.215.708a5.316,5.316,0,0,0-.882.323.5.5,0,0,1-.655-.059c-.15-.158-.37-.162-.547-.288a1.686,1.686,0,0,1-.635-1.254,2.718,2.718,0,0,1,.033-.708c0-.013,0-.03.005-.039.245-.343.41-.761.85-.917.115-.04.25-.065.3-.167a.783.783,0,0,1,.536-.365,6.3,6.3,0,0,1,1.249-.453.252.252,0,0,0,.173-.084c.171-.255.5-.218.712-.391.1-.079.167,0,.223.081a.567.567,0,0,1,.06.344v1.421c0,.473,0,.948,0,1.421,0,.167-.015.315-.184.4Z" transform="translate(-1796.346 -70.45)" fill="#1462a3"/>
        <path id="Caminho_16" data-name="Caminho 16" d="M398.741,101.384c.018-.706-.807-1.039-1.1-1.636a5.134,5.134,0,0,1-.343-2.267q.027-3.708.055-7.415c.017-2.269-.006-4.681-1.222-6.6A7.748,7.748,0,0,0,391.8,80.4a18.418,18.418,0,0,0-5.366-.629,28.146,28.146,0,0,0-6.133.546,15.414,15.414,0,0,0-2.994.967,17.191,17.191,0,0,1-2.548,1.428c-.331.076-.393.24-.382.515,0,.091-.013.184-.013.276q0,2.726,0,5.45c0,.389.045.429.431.431q3.656,0,7.311,0c.395,0,.787-.033,1.184-.008.3.019.416-.082.419-.342a12.923,12.923,0,0,1,.122-1.371,2.515,2.515,0,0,1,.317-1.1,1.722,1.722,0,0,1,.826-.778,1.528,1.528,0,0,1,.647-.089,1.452,1.452,0,0,1,1.389.844,4.444,4.444,0,0,1,.412,2.263,1.359,1.359,0,0,1-.02.2.42.42,0,0,1-.457.393,1,1,0,0,0-.382.072c-.473.219-1.012.237-1.484.493-.2.11-.474.1-.678.27a.913.913,0,0,1-.333.109c-.4.114-.8.24-1.209.332-.264.06-.458.28-.714.314a16.363,16.363,0,0,0-3.776,1.344,9.232,9.232,0,0,0-3.524,2.293,7.212,7.212,0,0,0-1.649,4.448,10.915,10.915,0,0,0,.293,2.882,8.521,8.521,0,0,0,.395,1.4c.13.308.372.552.483.86.172.477.665.7.86,1.147.49.3.814.806,1.366,1.027a1.524,1.524,0,0,1,.51.2,3.038,3.038,0,0,0,1.033.429c.578.231,1.251.1,1.835.381a.085.085,0,0,0,.039,0,6.9,6.9,0,0,0,2.156-.151,3.135,3.135,0,0,1,.5-.094,3.571,3.571,0,0,0,.958-.19,2.965,2.965,0,0,0,1.018-.472c.031-.031.1-.017.151-.037.34-.143.71-.174,1.056-.293.52-.178.88-.627,1.384-.835a.078.078,0,0,0,.028-.027c.115-.127.291-.18.39-.329a.16.16,0,0,1,.215-.033.176.176,0,0,1,.114.19,12.07,12.07,0,0,0,.009,1.293c-.03.358.009.376.37.374,1.251-.008,2.5-.021,3.753-.02,2.015,0,4.03.015,6.045.026.512,0,.551-.033.572-.559,0-.079.007-.158.006-.237-.011-.868-.03-1.738-.033-2.606q0-1.005.025-2.012ZM387.354,98.8a1.452,1.452,0,0,1-.847.929,3.277,3.277,0,0,1-2.286.4,1.9,1.9,0,0,1-1-1.69c0-1.84,2.676-2.38,3.97-2.945.147-.064.247.037.241.256-.01.408,0,.815-.008,1.222a6.685,6.685,0,0,1-.066,1.828Z" transform="translate(-328.933 -70.419)" fill="#1462a3"/>
        <path id="Caminho_17" data-name="Caminho 17" d="M897.386,85.8a.712.712,0,0,0-.08-.42,1.747,1.747,0,0,1-.273-.85.689.689,0,0,0-.25-.516,1.212,1.212,0,0,1-.358-.45,2.3,2.3,0,0,1-.3-.588.333.333,0,0,0-.195-.235.72.72,0,0,1-.451-.511.217.217,0,0,0-.091-.122c-.274-.155-.492-.406-.759-.546-.419-.221-.8-.5-1.209-.727a.824.824,0,0,0-.513-.225.2.2,0,0,1-.2-.087c-.369-.084-.742-.153-1.108-.254a12.22,12.22,0,0,0-2.6-.4,4.5,4.5,0,0,1-.67-.008,8.084,8.084,0,0,0-1.529-.1c-2.734-.036-5.681-.178-8.263.874a8.313,8.313,0,0,0-3.816,3.4,6.29,6.29,0,0,0-.7,2.558,6.457,6.457,0,0,0-.1,1.373c.053,3.816-.12,7.632.094,11.445.02.368.006.738.037,1.1a1.867,1.867,0,0,0,.5,1.389.261.261,0,0,1,.08.217c-.029.448.291.764.443,1.141a7.549,7.549,0,0,0,.46.772,4.047,4.047,0,0,0,1.087,1.154c.376.306.886.429,1.175.86a.313.313,0,0,0,.205.107c.5.057.962.262,1.464.281a1.177,1.177,0,0,1,.417.106,11.63,11.63,0,0,0,1.787.458,6.718,6.718,0,0,0,1.568.151.555.555,0,0,1,.272.026c.064.015.127.033.191.051.4.109.8-.159,1.235.05a3.115,3.115,0,0,0,1.251.049,6.788,6.788,0,0,0,1.262-.018,12.919,12.919,0,0,0,1.405-.151.821.821,0,0,1,.235,0c.1-.011.21-.014.313-.033.465-.083.943-.084,1.4-.213a3.971,3.971,0,0,1,.806-.168.934.934,0,0,0,.442-.157.943.943,0,0,1,.438-.162,3.322,3.322,0,0,0,1.23-.351c.236-.119.382-.346.612-.48.136-.079.325-.072.413-.209.262-.406.841-.523.958-1.059.008-.04.075-.071.117-.1a.977.977,0,0,0,.457-.607,1.128,1.128,0,0,1,.241-.448,2.748,2.748,0,0,0,.547-1.326.659.659,0,0,1,.143-.32.954.954,0,0,0,.2-.7,3.249,3.249,0,0,1,.033-.51,10.751,10.751,0,0,0,.094-1.255c-.015-.683.011-1.368,0-2.052-.058-3.733.132-7.469-.129-11.2Zm-9.835,7.4q0,2.686,0,5.372a3.136,3.136,0,0,1-.575,1.811,1.279,1.279,0,0,1-.7.589c-.2.049-.327.235-.568.242a1.972,1.972,0,0,1-.97-.375c-.137-.069-.243-.2-.389-.264a.3.3,0,0,1-.163-.164c-.062-.283-.28-.518-.309-.793a14.34,14.34,0,0,1-.13-1.529q.023-4.859,0-9.717a5.98,5.98,0,0,1,.137-1.249,3.012,3.012,0,0,1,.384-.9c.123-.206.391-.242.612-.318a2.594,2.594,0,0,1,1.588.013.624.624,0,0,1,.489.408.689.689,0,0,0,.1.209,2.472,2.472,0,0,1,.5,1.567c-.023,1.7-.008,3.4-.008,5.1Z" transform="translate(-770.277 -70.382)" fill="#1462a3"/>
      </g>
    </g>
  </g>
</svg>
